<?xml version="1.0" standalone="no"?>
<!DOCTYPE svg PUBLIC "-//W3C//DTD SVG 20010904//EN"
 "http://www.w3.org/TR/2001/REC-SVG-20010904/DTD/svg10.dtd">
<svg version="1.0" xmlns="http://www.w3.org/2000/svg"
 width="32.000000pt" height="32.000000pt" viewBox="0 0 32.000000 32.000000"
 preserveAspectRatio="xMidYMid meet">

<g transform="translate(0.000000,32.000000) scale(0.100000,-0.100000)"
fill="#000000" stroke="none">
<path d="M117 169 c-10 -62 -15 -114 -13 -116 9 -10 26 9 26 28 0 27 46 26 55
-1 3 -11 12 -20 19 -20 11 0 11 14 0 78 -26 150 -23 142 -48 142 -21 0 -24 -7
-39 -111z m55 -5 c2 -31 -1 -39 -15 -42 -19 -4 -23 27 -10 89 5 28 7 30 14 12
4 -11 9 -37 11 -59z"/>
</g>
</svg>
